<svg width="30" height="30" viewBox="0 0 30 30" fill="none" xmlns="http://www.w3.org/2000/svg">
<path d="M15 18.75C17.0711 18.75 18.75 17.0711 18.75 15C18.75 12.9289 17.0711 11.25 15 11.25C12.9289 11.25 11.25 12.9289 11.25 15C11.25 17.0711 12.9289 18.75 15 18.75Z" fill="white"/>
<path d="M29.0063 14.6812C27.9036 11.829 25.9894 9.36245 23.5001 7.58633C21.0109 5.81021 18.0558 4.80241 15 4.6875C11.9443 4.80241 8.98914 5.81021 6.4999 7.58633C4.01067 9.36245 2.09643 11.829 0.993778 14.6812C0.91931 14.8872 0.91931 15.1128 0.993778 15.3188C2.09643 18.171 4.01067 20.6375 6.4999 22.4137C8.98914 24.1898 11.9443 25.1976 15 25.3125C18.0558 25.1976 21.0109 24.1898 23.5001 22.4137C25.9894 20.6375 27.9036 18.171 29.0063 15.3188C29.0807 15.1128 29.0807 14.8872 29.0063 14.6812ZM15 21.0938C13.7948 21.0938 12.6166 20.7364 11.6145 20.0668C10.6124 19.3972 9.83136 18.4455 9.37014 17.332C8.90892 16.2185 8.78824 14.9932 9.02337 13.8112C9.2585 12.6291 9.83887 11.5433 10.6911 10.6911C11.5433 9.83884 12.6291 9.25847 13.8112 9.02334C14.9933 8.78821 16.2185 8.90889 17.332 9.37011C18.4455 9.83133 19.3972 10.6124 20.0668 11.6145C20.7364 12.6166 21.0938 13.7948 21.0938 15C21.0913 16.6154 20.4485 18.1639 19.3062 19.3062C18.164 20.4485 16.6154 21.0913 15 21.0938Z" fill="white"/>
</svg>
