<svg width="23" height="26" viewBox="0 0 23 26" fill="none" xmlns="http://www.w3.org/2000/svg">
<path d="M2.89075 25.872C2.76275 25.9573 2.47475 25.8507 2.02675 25.552C1.57875 25.2747 1.20542 24.9653 0.90675 24.624C0.757417 24.4533 0.661417 24.272 0.61875 24.08C0.576084 23.888 0.58675 23.5253 0.65075 22.992C0.736084 22.7573 0.77875 22.5333 0.77875 22.32C0.800083 22.1067 0.81075 21.9573 0.81075 21.872C0.81075 21.744 0.84275 21.4453 0.90675 20.976C0.992084 20.5067 1.07742 20.016 1.16275 19.504C1.24808 18.9707 1.32275 18.5653 1.38675 18.288C1.38675 18.2667 1.39742 18.192 1.41875 18.064C1.46142 17.936 1.49342 17.84 1.51475 17.776C1.55742 17.584 1.61075 17.3493 1.67475 17.072C1.73875 16.7947 1.80275 16.4213 1.86675 15.952C2.03742 15.4187 2.17608 14.896 2.28275 14.384C2.41075 13.8507 2.47475 13.488 2.47475 13.296C2.47475 12.912 2.62408 12.6347 2.92275 12.464C2.94408 12.3573 3.00808 12.1973 3.11475 11.984C3.22142 11.7493 3.31742 11.5573 3.40275 11.408C3.82942 10.192 4.18142 9.22133 4.45875 8.496C4.73608 7.77067 5.02408 7.14133 5.32275 6.608C5.45075 6.24533 5.58942 5.872 5.73875 5.488C5.90942 5.104 6.08008 4.80533 6.25075 4.592C6.40008 4.29333 6.65608 3.93067 7.01875 3.504C7.40275 3.056 7.80808 2.62933 8.23475 2.224C8.66142 1.81867 9.00275 1.52 9.25875 1.328C9.72808 1.09333 10.1654 0.901333 10.5708 0.751999C10.9761 0.602666 11.4028 0.528 11.8508 0.528C12.2561 0.528 12.6081 0.623999 12.9068 0.815998C13.2268 0.986665 13.6961 1.34933 14.3148 1.904C14.5281 2.18133 14.6348 2.448 14.6348 2.704C14.6348 2.96 14.5814 3.17333 14.4748 3.344C14.3254 3.68533 14.1014 4.112 13.8028 4.624C13.5041 5.11467 13.2161 5.56267 12.9388 5.968C12.6614 6.352 12.4588 6.55467 12.3308 6.576C12.0748 6.72533 11.8081 6.768 11.5308 6.704C11.2534 6.64 11.1148 6.448 11.1148 6.128C11.1148 5.97867 11.1148 5.84 11.1148 5.712C11.1361 5.584 11.1468 5.52 11.1468 5.52C11.2108 5.24267 11.2854 4.99733 11.3708 4.784C11.4774 4.57067 11.5734 4.38933 11.6588 4.24C11.8294 3.96267 11.8721 3.696 11.7868 3.44C11.7228 3.184 11.4561 3.07733 10.9868 3.12C10.9228 3.16267 10.7948 3.26933 10.6028 3.44C10.4321 3.58933 10.2401 3.77067 10.0268 3.984C9.83475 4.176 9.66408 4.368 9.51475 4.56C9.36542 4.73067 9.29075 4.848 9.29075 4.912C9.29075 4.912 9.22675 5.02933 9.09875 5.264C8.99208 5.47733 8.82142 5.72267 8.58675 6C8.43742 6.21333 8.30942 6.416 8.20275 6.608C8.09608 6.8 8.04275 6.94933 8.04275 7.056C8.04275 7.14133 8.03208 7.216 8.01075 7.28C7.98942 7.344 7.93608 7.376 7.85075 7.376C7.85075 7.376 7.80808 7.48267 7.72275 7.696C7.65875 7.90933 7.54142 8.16533 7.37075 8.464C7.28542 8.67733 7.18942 8.88 7.08275 9.072C6.99742 9.24267 6.91208 9.37067 6.82675 9.456L6.79475 9.52C6.79475 9.52 6.74142 9.648 6.63475 9.904C6.54942 10.1387 6.45342 10.384 6.34675 10.64C6.24008 10.896 6.18675 11.0453 6.18675 11.088C6.18675 11.1733 6.31475 11.216 6.57075 11.216C6.82675 11.216 7.13608 11.184 7.49875 11.12C7.86142 11.0347 8.21342 10.9493 8.55475 10.864C8.85342 10.7787 9.06675 10.736 9.19475 10.736C9.32275 10.736 9.52542 10.7787 9.80275 10.864C9.97342 10.9707 10.1121 11.1627 10.2188 11.44C10.3254 11.696 10.4001 11.9627 10.4428 12.24C10.5068 12.496 10.5174 12.688 10.4748 12.816C10.4534 12.9013 10.2081 13.0187 9.73875 13.168C9.29075 13.3173 8.84275 13.4347 8.39475 13.52C8.01075 13.6053 7.57342 13.7013 7.08275 13.808C6.61342 13.8933 6.19742 13.9893 5.83475 14.096C5.47208 14.1813 5.28008 14.2667 5.25875 14.352C5.17342 14.352 5.09875 14.4053 5.03475 14.512C4.99208 14.6187 4.97075 14.7147 4.97075 14.8C4.97075 15.0773 4.91742 15.3013 4.81075 15.472C4.76808 15.6 4.69342 15.8667 4.58675 16.272C4.50142 16.656 4.40542 17.0827 4.29875 17.552C4.21342 18 4.12808 18.4267 4.04275 18.832C3.97875 19.216 3.94675 19.472 3.94675 19.6C3.81875 19.7493 3.74408 19.9413 3.72275 20.176C3.70142 20.3893 3.69075 20.5813 3.69075 20.752C3.60542 20.9227 3.55208 21.0827 3.53075 21.232C3.50942 21.36 3.49875 21.4667 3.49875 21.552C3.49875 21.5733 3.49875 21.616 3.49875 21.68C3.49875 21.744 3.48808 21.808 3.46675 21.872C3.44542 22.0853 3.41342 22.3627 3.37075 22.704C3.34942 23.0667 3.33875 23.4187 3.33875 23.76L3.24275 24.688C3.22142 24.9653 3.17875 25.2 3.11475 25.392C3.07208 25.6053 2.99742 25.7653 2.89075 25.872ZM11.8445 21.776C11.5245 21.6693 11.2365 21.4987 10.9805 21.264C10.7458 21.0293 10.6498 20.6453 10.6925 20.112C10.7352 19.792 10.7992 19.4613 10.8845 19.12C10.9698 18.7573 11.0765 18.4053 11.2045 18.064C11.2685 17.68 11.3432 17.296 11.4285 16.912C11.5352 16.528 11.7058 16.1653 11.9405 15.824C12.2178 15.0347 12.5058 14.256 12.8045 13.488C13.1032 12.6987 13.3592 11.8773 13.5725 11.024C13.8925 10.256 14.1805 9.57333 14.4365 8.976C14.7138 8.37867 15.0445 7.61067 15.4285 6.672C15.6418 6.18133 15.8232 5.63733 15.9725 5.04C16.1432 4.42133 16.3992 3.87733 16.7405 3.408C16.8898 3.216 16.9965 3.056 17.0605 2.928C17.1458 2.77867 17.2312 2.64 17.3165 2.512C17.4658 2.21333 17.6898 2.07467 17.9885 2.096C18.3085 2.11733 18.5218 2.20267 18.6285 2.352C18.9912 2.50133 19.2472 2.77867 19.3965 3.184C19.5458 3.568 19.5992 3.84533 19.5565 4.016C19.5565 4.25067 19.4712 4.50667 19.3005 4.784C19.2152 4.86933 19.1298 4.99733 19.0445 5.168C18.9592 5.31733 18.8312 5.52 18.6605 5.776C18.5752 6.05333 18.4898 6.33067 18.4045 6.608C18.3192 6.88533 18.2232 7.14133 18.1165 7.376C18.0098 7.61067 17.8925 7.84533 17.7645 8.08C17.6365 8.31467 17.5512 8.50667 17.5085 8.656C17.3165 9.14667 17.1032 9.62667 16.8685 10.096C16.6552 10.544 16.4632 11.024 16.2925 11.536C16.1218 12.0267 15.9405 12.5493 15.7485 13.104C15.5565 13.6373 15.3112 14.1493 15.0125 14.64C14.8632 14.8533 14.7778 15.1413 14.7565 15.504C14.7565 15.8667 14.7138 16.2187 14.6285 16.56C14.4792 16.944 14.3405 17.296 14.2125 17.616C14.1058 17.936 14.0525 18.1387 14.0525 18.224C13.9032 18.6933 13.7858 19.1627 13.7005 19.632C13.6152 20.08 13.4765 20.4747 13.2845 20.816C13.2845 21.328 13.1458 21.648 12.8685 21.776C12.5912 21.904 12.2498 21.904 11.8445 21.776ZM19.1725 22.064C18.8312 22.0213 18.5752 21.9573 18.4045 21.872C18.2338 21.7653 17.9138 21.5413 17.4445 21.2C17.1885 20.944 16.8685 20.5493 16.4845 20.016C16.1005 19.4827 15.7165 18.9173 15.3325 18.32C14.9485 17.7013 14.6072 17.1787 14.3085 16.752L16.0685 14.512C16.3458 14.8533 16.5698 15.1733 16.7405 15.472C16.9112 15.7707 17.0498 15.9733 17.1565 16.08C17.6472 16.8053 18.0312 17.392 18.3085 17.84C18.5858 18.288 18.8205 18.6507 19.0125 18.928C19.2258 19.2053 19.4605 19.4507 19.7165 19.664C19.9725 19.8773 20.3032 20.1013 20.7085 20.336C20.7725 20.3787 20.8365 20.4853 20.9005 20.656C20.9645 20.8053 20.9858 20.9653 20.9645 21.136C20.9218 21.392 20.7618 21.6053 20.4845 21.776C20.2285 21.9253 19.7912 22.0213 19.1725 22.064ZM14.5325 16.144C14.4045 15.7813 14.3725 15.376 14.4365 14.928C14.5218 14.4587 14.7032 14.1493 14.9805 14C15.0658 13.8507 15.1512 13.7547 15.2365 13.712C15.3432 13.648 15.4072 13.5733 15.4285 13.488C15.4712 13.4027 15.5778 13.2853 15.7485 13.136C15.9405 12.9867 16.1112 12.848 16.2605 12.72C16.6018 12.5067 16.9752 12.2507 17.3805 11.952C17.8072 11.632 18.2125 11.312 18.5965 10.992C19.0018 10.672 19.3325 10.3947 19.5885 10.16C19.8658 9.92533 20.0365 9.776 20.1005 9.712C20.1645 9.62667 20.2925 9.57333 20.4845 9.552C20.6978 9.53067 20.9005 9.56267 21.0925 9.648C21.3485 9.712 21.5512 9.85067 21.7005 10.064C21.8712 10.2773 21.9565 10.576 21.9565 10.96C22.0205 11.1947 21.8818 11.4827 21.5405 11.824C21.2205 12.144 20.8152 12.464 20.3245 12.784C20.1538 12.8907 19.9192 13.0507 19.6205 13.264C19.3432 13.4773 19.0978 13.68 18.8845 13.872C18.7352 13.9573 18.5112 14.1067 18.2125 14.32C17.9352 14.512 17.6898 14.704 17.4765 14.896C17.3058 15.0027 17.1032 15.1947 16.8685 15.472C16.6552 15.728 16.4098 15.92 16.1325 16.048C15.4498 16.688 15.0338 16.9973 14.8845 16.976C14.7565 16.9547 14.6392 16.6773 14.5325 16.144Z" fill="#0D0C22"/>
</svg>
